<svg width="32" height="34" viewBox="0 0 32 34" fill="none" xmlns="http://www.w3.org/2000/svg">
<circle opacity="0.3" cx="16" cy="16.7185" r="14.5" stroke="white" stroke-width="3"/>
<path d="M16 2.11713C16 1.34469 16.6274 0.712159 17.3969 0.779595C19.6556 0.977542 21.8521 1.65389 23.838 2.76983C26.2314 4.11472 28.2385 6.05285 29.6662 8.3978C31.094 10.7427 31.8943 13.4156 31.9902 16.1593C32.0862 18.903 31.4745 21.6253 30.2141 24.0642C28.9537 26.5032 27.0869 28.5768 24.7933 30.0856C22.4996 31.5944 19.8564 32.4876 17.1177 32.6794C14.379 32.8712 11.637 32.3551 9.15554 31.1806C7.09649 30.2062 5.27425 28.8057 3.80625 27.0777C3.30614 26.489 3.4592 25.6113 4.0893 25.1645C4.71939 24.7177 5.58715 24.8722 6.09808 25.4515C7.28084 26.7926 8.72712 27.8832 10.3521 28.6523C12.3998 29.6214 14.6624 30.0473 16.9223 29.889C19.1822 29.7308 21.3633 28.9937 23.2559 27.7486C25.1486 26.5036 26.689 24.7925 27.7291 22.78C28.7691 20.7674 29.2739 18.5211 29.1947 16.2571C29.1155 13.993 28.4551 11.7875 27.277 9.85249C26.0989 7.9175 24.4427 6.31821 22.4677 5.20844C20.9004 4.32773 19.1741 3.77883 17.396 3.58976C16.6279 3.50808 16 2.88956 16 2.11713Z" fill="white"/>
<path d="M15.4879 12.0996V12.7646C15.4879 12.9606 15.4669 13.1193 15.4249 13.2406C15.3829 13.362 15.3409 13.4646 15.2989 13.5486L11.3159 21.6546C11.2459 21.804 11.1456 21.93 11.0149 22.0326C10.8889 22.1306 10.7209 22.1796 10.5109 22.1796H9.42591L13.4859 14.2066C13.5606 14.062 13.6352 13.9313 13.7099 13.8146C13.7846 13.698 13.8686 13.586 13.9619 13.4786H8.92891C8.83557 13.4786 8.75391 13.4436 8.68391 13.3736C8.61391 13.299 8.57891 13.215 8.57891 13.1216V12.0996H15.4879ZM23.189 21.0386V22.1796H17.694V21.0386H19.794V14.7246C19.794 14.5006 19.801 14.272 19.815 14.0386L18.198 15.4036C18.128 15.4596 18.0557 15.497 17.981 15.5156C17.911 15.5296 17.8433 15.5296 17.778 15.5156C17.7173 15.5016 17.6613 15.4806 17.61 15.4526C17.5633 15.42 17.526 15.385 17.498 15.3476L17.029 14.6896L20.067 12.0786H21.292V21.0386H23.189Z" fill="white"/>
</svg>
